<svg width="1200" height="600" viewBox="0 0 1200 600" fill="none" xmlns="http://www.w3.org/2000/svg">
  <rect width="1200" height="600" rx="36" fill="#111827"/>
  <rect x="825" y="74" width="270" height="420" rx="28" fill="#172554"/>
  <rect x="870" y="146" width="182" height="18" rx="9" fill="#334155"/>
  <rect x="870" y="194" width="150" height="18" rx="9" fill="#334155"/>
  <rect x="870" y="242" width="170" height="18" rx="9" fill="#334155"/>
  <rect x="870" y="290" width="122" height="18" rx="9" fill="#334155"/>
  <rect x="870" y="338" width="158" height="18" rx="9" fill="#334155"/>
  <circle cx="1005" cy="431" r="31" fill="#22C55E"/>
  <path d="M990 431.5L1000 441L1021 418" stroke="white" stroke-width="10" stroke-linecap="round" stroke-linejoin="round"/>
  <rect x="72" y="72" width="190" height="48" rx="24" fill="#FFF7ED"/>
  <text x="111" y="103" fill="#EA580C" font-family="Inter, Arial, sans-serif" font-size="24" font-weight="700">INDIA GUIDE</text>
  <text x="72" y="205" fill="white" font-family="Inter, Arial, sans-serif" font-size="64" font-weight="800">DPDP Checklist</text>
  <text x="72" y="285" fill="white" font-family="Inter, Arial, sans-serif" font-size="64" font-weight="800">for WordPress Sites</text>
  <text x="72" y="377" fill="#CBD5E1" font-family="Inter, Arial, sans-serif" font-size="32" font-weight="500">A practical implementation checklist for forms,</text>
  <text x="72" y="421" fill="#CBD5E1" font-family="Inter, Arial, sans-serif" font-size="32" font-weight="500">plugins, analytics, CRM flows, and data handling.</text>
  <text x="72" y="520" fill="#94A3B8" font-family="Inter, Arial, sans-serif" font-size="34" font-weight="700">webadish.com</text>
</svg>
