<svg width="1200" height="630" viewBox="0 0 1200 630" fill="none" xmlns="http://www.w3.org/2000/svg">
  <rect width="1200" height="630" fill="#08111C"/>
  <rect width="1200" height="630" fill="url(#bg)"/>
  <circle cx="986" cy="132" r="210" fill="#2563EB" fill-opacity="0.14"/>
  <circle cx="178" cy="552" r="216" fill="#14B8A6" fill-opacity="0.10"/>
  <rect x="66" y="56" width="1068" height="518" rx="28" fill="#0B1624" fill-opacity="0.86" stroke="#243447"/>
  <rect x="96" y="92" width="186" height="38" rx="19" fill="#EFF6FF"/>
  <text x="189" y="117" text-anchor="middle" fill="#1D4ED8" font-family="Arial, Helvetica, sans-serif" font-size="18" font-weight="700">BUYER INTENT</text>
  <text x="96" y="200" fill="#F8FAFC" font-family="Arial, Helvetica, sans-serif" font-size="58" font-weight="700">
    <tspan x="96" dy="0">Ask Better Questions</tspan>
    <tspan x="96" dy="72">Before You Hire.</tspan>
  </text>
  <text x="96" y="392" fill="#CBD5E1" font-family="Arial, Helvetica, sans-serif" font-size="28" font-weight="400">
    <tspan x="96" dy="0">Use sharper buying questions to separate generic</tspan>
    <tspan x="96" dy="40">WordPress support from real security capability.</tspan>
  </text>
  <g transform="translate(842 228)">
    <rect width="230" height="174" rx="24" fill="#111F31" stroke="#334155"/>
    <circle cx="58" cy="64" r="18" fill="#1D4ED8" fill-opacity="0.24"/>
    <text x="58" y="71" text-anchor="middle" fill="#BFDBFE" font-family="Arial, Helvetica, sans-serif" font-size="18" font-weight="700">?</text>
    <rect x="90" y="50" width="108" height="16" rx="8" fill="#243447"/>
    <rect x="90" y="82" width="88" height="16" rx="8" fill="#243447"/>
    <rect x="36" y="122" width="162" height="14" rx="7" fill="#243447"/>
  </g>
  <text x="96" y="527" fill="#94A3B8" font-family="Arial, Helvetica, sans-serif" font-size="24" font-weight="600">webadish.com</text>
  <defs>
    <linearGradient id="bg" x1="86" y1="42" x2="1109" y2="596" gradientUnits="userSpaceOnUse">
      <stop stop-color="#0F172A"/>
      <stop offset="1" stop-color="#111827"/>
    </linearGradient>
  </defs>
</svg>
