<svg width="1200" height="630" viewBox="0 0 1200 630" fill="none" xmlns="http://www.w3.org/2000/svg">
  <rect width="1200" height="630" fill="#08111C"/>
  <rect width="1200" height="630" fill="url(#bg)"/>
  <circle cx="1008" cy="136" r="208" fill="#7C3AED" fill-opacity="0.14"/>
  <circle cx="178" cy="550" r="214" fill="#2563EB" fill-opacity="0.10"/>
  <rect x="66" y="56" width="1068" height="518" rx="28" fill="#0B1624" fill-opacity="0.86" stroke="#243447"/>
  <rect x="96" y="92" width="186" height="38" rx="19" fill="#EFF6FF"/>
  <text x="189" y="117" text-anchor="middle" fill="#1D4ED8" font-family="Arial, Helvetica, sans-serif" font-size="18" font-weight="700">BUYER INTENT</text>
  <text x="96" y="200" fill="#F8FAFC" font-family="Arial, Helvetica, sans-serif" font-size="58" font-weight="700">
    <tspan x="96" dy="0">What Growing Stores</tspan>
    <tspan x="96" dy="72">Should Expect.</tspan>
  </text>
  <text x="96" y="392" fill="#CBD5E1" font-family="Arial, Helvetica, sans-serif" font-size="28" font-weight="400">
    <tspan x="96" dy="0">A WooCommerce maintenance checklist covering updates,</tspan>
    <tspan x="96" dy="40">backups, uptime, and emergency support expectations.</tspan>
  </text>
  <g transform="translate(842 226)">
    <rect width="230" height="178" rx="24" fill="#111F31" stroke="#334155"/>
    <rect x="40" y="40" width="124" height="18" rx="9" fill="#243447"/>
    <rect x="40" y="76" width="148" height="18" rx="9" fill="#243447"/>
    <rect x="40" y="112" width="132" height="18" rx="9" fill="#243447"/>
    <circle cx="188" cy="50" r="10" fill="#22C55E"/>
    <circle cx="188" cy="86" r="10" fill="#22C55E"/>
    <circle cx="188" cy="122" r="10" fill="#22C55E"/>
  </g>
  <text x="96" y="527" fill="#94A3B8" font-family="Arial, Helvetica, sans-serif" font-size="24" font-weight="600">webadish.com</text>
  <defs>
    <linearGradient id="bg" x1="86" y1="42" x2="1109" y2="596" gradientUnits="userSpaceOnUse">
      <stop stop-color="#0F172A"/>
      <stop offset="1" stop-color="#111827"/>
    </linearGradient>
  </defs>
</svg>
