<svg width="1200" height="630" viewBox="0 0 1200 630" fill="none" xmlns="http://www.w3.org/2000/svg">
  <rect width="1200" height="630" fill="#08111C"/>
  <rect width="1200" height="630" fill="url(#bg)"/>
  <circle cx="1005" cy="132" r="212" fill="#2563EB" fill-opacity="0.14"/>
  <circle cx="176" cy="548" r="214" fill="#10B981" fill-opacity="0.10"/>
  <rect x="66" y="56" width="1068" height="518" rx="28" fill="#0B1624" fill-opacity="0.86" stroke="#243447"/>
  <rect x="96" y="92" width="186" height="38" rx="19" fill="#EFF6FF"/>
  <text x="189" y="117" text-anchor="middle" fill="#1D4ED8" font-family="Arial, Helvetica, sans-serif" font-size="18" font-weight="700">BUYER INTENT</text>
  <text x="96" y="200" fill="#F8FAFC" font-family="Arial, Helvetica, sans-serif" font-size="58" font-weight="700">
    <tspan x="96" dy="0">What Should a Security</tspan>
    <tspan x="96" dy="72">Retainer Actually Include?</tspan>
  </text>
  <text x="96" y="392" fill="#CBD5E1" font-family="Arial, Helvetica, sans-serif" font-size="28" font-weight="400">
    <tspan x="96" dy="0">A decision-stage guide to SLAs, audits, monitoring,</tspan>
    <tspan x="96" dy="40">incident response, and ongoing WordPress protection.</tspan>
  </text>
  <g transform="translate(844 228)">
    <rect width="228" height="176" rx="24" fill="#111F31" stroke="#334155"/>
    <rect x="36" y="38" width="156" height="18" rx="9" fill="#243447"/>
    <rect x="36" y="72" width="128" height="18" rx="9" fill="#243447"/>
    <rect x="36" y="106" width="144" height="18" rx="9" fill="#243447"/>
    <circle cx="188" cy="120" r="20" fill="#10B981"/>
    <path d="M178 120L186 128L201 113" stroke="#F8FAFC" stroke-width="7" stroke-linecap="round" stroke-linejoin="round"/>
  </g>
  <text x="96" y="527" fill="#94A3B8" font-family="Arial, Helvetica, sans-serif" font-size="24" font-weight="600">webadish.com</text>
  <defs>
    <linearGradient id="bg" x1="86" y1="42" x2="1109" y2="596" gradientUnits="userSpaceOnUse">
      <stop stop-color="#0F172A"/>
      <stop offset="1" stop-color="#111827"/>
    </linearGradient>
  </defs>
</svg>
