<svg width="1200" height="630" viewBox="0 0 1200 630" fill="none" xmlns="http://www.w3.org/2000/svg">
  <rect width="1200" height="630" fill="#08111C"/>
  <rect width="1200" height="630" fill="url(#bg)"/>
  <circle cx="975" cy="148" r="215" fill="#1D4ED8" fill-opacity="0.18"/>
  <circle cx="189" cy="556" r="224" fill="#F97316" fill-opacity="0.12"/>
  <rect x="66" y="56" width="1068" height="518" rx="28" fill="#0B1624" fill-opacity="0.86" stroke="#243447"/>
  <rect x="96" y="92" width="186" height="38" rx="19" fill="#EFF6FF"/>
  <text x="189" y="117" text-anchor="middle" fill="#1D4ED8" font-family="Arial, Helvetica, sans-serif" font-size="18" font-weight="700">BUYER INTENT</text>
  <text x="96" y="202" fill="#F8FAFC" font-family="Arial, Helvetica, sans-serif" font-size="60" font-weight="700">
    <tspan x="96" dy="0">How Often Should</tspan>
    <tspan x="96" dy="74">a WordPress Site Be</tspan>
    <tspan x="96" dy="74">Security Audited?</tspan>
  </text>
  <text x="96" y="438" fill="#CBD5E1" font-family="Arial, Helvetica, sans-serif" font-size="28" font-weight="400">
    <tspan x="96" dy="0">A practical audit cadence framework for revenue-critical</tspan>
    <tspan x="96" dy="40">websites, growing plugin stacks, and higher-risk teams.</tspan>
  </text>
  <g transform="translate(851 236)">
    <rect width="216" height="160" rx="22" fill="#111F31" stroke="#334155"/>
    <rect x="26" y="32" width="164" height="16" rx="8" fill="#243447"/>
    <rect x="26" y="63" width="126" height="16" rx="8" fill="#243447"/>
    <rect x="26" y="94" width="148" height="16" rx="8" fill="#243447"/>
    <circle cx="172" cy="116" r="23" fill="#16A34A"/>
    <path d="M160 116L169 125L186 107" stroke="#F8FAFC" stroke-width="8" stroke-linecap="round" stroke-linejoin="round"/>
  </g>
  <text x="96" y="527" fill="#94A3B8" font-family="Arial, Helvetica, sans-serif" font-size="24" font-weight="600">webadish.com</text>
  <defs>
    <linearGradient id="bg" x1="86" y1="42" x2="1109" y2="596" gradientUnits="userSpaceOnUse">
      <stop stop-color="#0F172A"/>
      <stop offset="1" stop-color="#111827"/>
    </linearGradient>
  </defs>
</svg>
